<svg xmlns="http://www.w3.org/2000/svg" width="312.461" height="179.845" viewBox="0 0 312.461 179.845"><defs><style>.a{fill:#fff;}</style></defs><g transform="translate(-115.344 -69.073)"><path d="M425.494,134.149l.087-2.535c.34-9.883-2-17.277-7.145-22.6-6.613-6.845-17.35-9.9-34.812-9.9-18.275,0-29.176,5.511-34.65,10.289-3.833,3.494-10.037,10.733-9.549,10.174V101.71h-35.7L292.1,116.061h-.211c-8.15-10.736-21.756-16.949-39.023-16.949a56.07,56.07,0,0,0-24.335,5.08l3.6-6.112V69.073H193.247l-5.3,8.9h-.163v-8.9H146.129l-30.785,63.4V246.288h57.231l9.249-12.694c7.879,9.738,20.3,15.321,35.824,15.321,15.825,0,28.412-5.832,36.245-15.96l11.855-15.62v28.953h34.13l6.315-8.488c.31.369.63.731.965,1.082,6.471,6.787,17.377,9.975,34.313,10.033.3,0,.6,0,.893,0,16.372,0,27.573-3.214,34.22-9.814l44.245-61.779c4.629-4.6,6.976-10.829,6.976-18.519,0-9.288-3.485-15.112-8.6-18.879Zm-197.56-29.66v-.1h.2Z"/><path class="a" d="M147.672,104.335h30.449v52.521h28.15v25.426h-58.6Z"/><path class="a" d="M207.89,143.309c0-25.333,17.306-41.572,44.979-41.572,27.58,0,44.887,16.239,44.887,41.572,0,25.24-17.307,41.572-44.887,41.572C225.2,184.881,207.89,168.549,207.89,143.309Zm59.695,0c0-10.393-7.034-15.311-14.716-15.311-7.774,0-14.715,4.918-14.715,15.311,0,10.3,6.941,15.311,14.715,15.311C260.551,158.62,267.585,153.609,267.585,143.309Z"/><path class="a" d="M306.35,104.335H336.8v77.947H306.35Z"/><path class="a" d="M342.717,154.908h27.3c0,3.9,3.425,6.217,13.42,6.31,8.329.185,11.476-1.763,11.476-3.712,0-.556.648-3.155-5.831-3.9l-10.273-1.577c-14.715-2.228-34.428-2.6-34.428-24.5,0-15.868,12.586-25.8,39.241-25.8,23.693,0,40.167,5.568,39.334,29.787H395.84c-.74-3.9-4.35-6.217-12.864-6.217-7.219,0-9.347,1.948-9.347,3.805,0,.556-.185,3.061,4.35,3.618l8.143,1.3c15.827,2.6,39.057,1.669,39.057,24.776,0,18-13.512,26.26-41.74,26.075C354.471,184.788,341.7,176.437,342.717,154.908Z"/><path class="a" d="M174.535,78.476h-9.024V96.33h-9.176V78.476h-9V70.823h27.2Z"/><path class="a" d="M203.633,70.823V96.33h-9.176v-8.9h-8.965v8.9h-9.146V70.823h9.146v8.9h8.965v-8.9Z"/><path class="a" d="M206.433,70.823h23.41v7.318H215.579v2.49H229.3v5.891H215.579v2.46h14.264V96.33h-23.41Z"/></g></svg>