<svg xmlns="http://www.w3.org/2000/svg" width="261.675" height="43.849" viewBox="0 0 261.675 43.849">
  <defs>
    <style>
      .cls-1, .cls-2 {
        stroke: #000;
        stroke-miterlimit: 20;
      }

      .cls-2 {
        fill: none;
      }
      .cls-1
      fill: #fff
      }
    </style>
  </defs>
  <g id="Group_115" data-name="Group 115" transform="translate(381.58 -33.665)">
    <path id="Path_159" data-name="Path 159" class="cls-1" d="M-374.011,70.635v5.9a4.543,4.543,0,0,1-1.01,3.224,3.359,3.359,0,0,1-2.562,1.074,3.237,3.237,0,0,1-2.513-1.087,4.646,4.646,0,0,1-.983-3.211V56.861q0-4.765,3.445-4.766A2.877,2.877,0,0,1-375.1,53.21a6.149,6.149,0,0,1,.855,3.289,12.323,12.323,0,0,1,2.6-3.289,5.388,5.388,0,0,1,3.56-1.115,9.132,9.132,0,0,1,4.324,1.115,3.325,3.325,0,0,1,2.1,2.951,2.8,2.8,0,0,1-.894,2.136,2.77,2.77,0,0,1-1.929.84,8.839,8.839,0,0,1-1.875-.478,8.728,8.728,0,0,0-2.63-.477,3.838,3.838,0,0,0-2.536.815,5.231,5.231,0,0,0-1.528,2.42,16.944,16.944,0,0,0-.751,3.819q-.207,2.215-.207,5.4" transform="translate(0 -3.821)"/>
    <path id="Path_160" data-name="Path 160" class="cls-1" d="M-335.156,68.185h-13.825a9.4,9.4,0,0,0,.97,4.248A6.67,6.67,0,0,0-345.5,75.2a6.637,6.637,0,0,0,3.458.934,8.521,8.521,0,0,0,2.317-.3,7.561,7.561,0,0,0,2.032-.933,14.953,14.953,0,0,0,1.811-1.358q.831-.726,2.151-1.966a2.305,2.305,0,0,1,1.552-.467,2.564,2.564,0,0,1,1.762.6,2.133,2.133,0,0,1,.673,1.683,4.6,4.6,0,0,1-.751,2.24,8.887,8.887,0,0,1-2.264,2.458,12.958,12.958,0,0,1-3.807,1.955,16.367,16.367,0,0,1-5.269.774q-6.808,0-10.588-3.883T-356.2,66.4a17.536,17.536,0,0,1,.934-5.813,12.807,12.807,0,0,1,2.717-4.6,11.832,11.832,0,0,1,4.4-2.939,15.843,15.843,0,0,1,5.8-1.023,13.748,13.748,0,0,1,7.107,1.751,11.474,11.474,0,0,1,4.439,4.515,11.868,11.868,0,0,1,1.477,5.645q0,2.668-1.528,3.458a9.53,9.53,0,0,1-4.3.787m-13.825-4.013h12.816a8.593,8.593,0,0,0-1.955-5.424,5.855,5.855,0,0,0-4.465-1.8,5.66,5.66,0,0,0-4.338,1.826,9.066,9.066,0,0,0-2.058,5.4" transform="translate(-5.301 -3.807)"/>
    <path id="Path_161" data-name="Path 161" class="cls-1" d="M-310.288,56.006v.855a12.351,12.351,0,0,1,4.077-3.613,10.87,10.87,0,0,1,5.088-1.154,10.182,10.182,0,0,1,5,1.217,7.74,7.74,0,0,1,3.285,3.445,8.124,8.124,0,0,1,.906,2.8,28.748,28.748,0,0,1,.209,3.832V76.536a4.679,4.679,0,0,1-.973,3.211,3.221,3.221,0,0,1-2.524,1.087,3.264,3.264,0,0,1-2.562-1.111,4.668,4.668,0,0,1-.985-3.188V64.756a11.777,11.777,0,0,0-.97-5.345q-.97-1.853-3.871-1.85a5.726,5.726,0,0,0-3.443,1.126,6.447,6.447,0,0,0-2.279,3.092,22.134,22.134,0,0,0-.518,5.9v8.853a4.585,4.585,0,0,1-1,3.224,3.343,3.343,0,0,1-2.575,1.075,3.206,3.206,0,0,1-2.511-1.111,4.66,4.66,0,0,1-.985-3.188V56.11a4.462,4.462,0,0,1,.879-3.017,3.057,3.057,0,0,1,2.409-1,3.259,3.259,0,0,1,1.683.442,3.162,3.162,0,0,1,1.2,1.32,4.667,4.667,0,0,1,.453,2.149" transform="translate(-13.674 -3.821)"/>
    <path id="Path_162" data-name="Path 162" class="cls-1" d="M-278.519,50.117h.777V45.87q0-1.708.091-2.679a3.942,3.942,0,0,1,.5-1.67,3.179,3.179,0,0,1,1.191-1.179,3.372,3.372,0,0,1,1.734-.453,3.5,3.5,0,0,1,2.434,1.01,3,3,0,0,1,.92,1.643,15.143,15.143,0,0,1,.194,2.757v4.817h2.587a3.311,3.311,0,0,1,2.292.713A2.343,2.343,0,0,1-265,52.654a2.046,2.046,0,0,1-1.128,1.994,7.3,7.3,0,0,1-3.223.57h-1.32v13a21.451,21.451,0,0,0,.115,2.551,2.585,2.585,0,0,0,.623,1.449,2.119,2.119,0,0,0,1.643.557,8.833,8.833,0,0,0,1.683-.221,8.76,8.76,0,0,1,1.657-.22,2.134,2.134,0,0,1,1.541.685,2.309,2.309,0,0,1,.685,1.7,2.839,2.839,0,0,1-1.864,2.615,12.612,12.612,0,0,1-5.36.9,9.257,9.257,0,0,1-5.022-1.113,5.165,5.165,0,0,1-2.239-3.081,20.878,20.878,0,0,1-.531-5.256V55.218h-.932a3.372,3.372,0,0,1-2.33-.726,2.367,2.367,0,0,1-.8-1.838,2.278,2.278,0,0,1,.84-1.824,3.694,3.694,0,0,1,2.447-.713" transform="translate(-21.156 -1.22)"/>
    <path id="Path_163" data-name="Path 163" class="cls-2" d="M-54.633,43.074a8.909,8.909,0,0,1-8.909,8.909,8.909,8.909,0,0,1-8.908-8.909,8.909,8.909,0,0,1,8.908-8.909A8.909,8.909,0,0,1-54.633,43.074Z" transform="translate(-65.772)"/>
    <g id="Group_114" data-name="Group 114" transform="translate(-133.72 40.342)">
      <path id="Path_164" data-name="Path 164" d="M-65.3,42.68l2.132,3.227V42.65a.712.712,0,0,1,.137-.476.458.458,0,0,1,.367-.159.474.474,0,0,1,.378.159.707.707,0,0,1,.138.476v4.307q0,.721-.6.721a.8.8,0,0,1-.269-.042.674.674,0,0,1-.224-.137,1.383,1.383,0,0,1-.194-.218c-.06-.083-.119-.168-.179-.256l-2.081-3.19v3.208a.682.682,0,0,1-.146.474.478.478,0,0,1-.373.161.475.475,0,0,1-.378-.162.7.7,0,0,1-.142-.473V42.818a1.19,1.19,0,0,1,.061-.423.6.6,0,0,1,.234-.275.646.646,0,0,1,.356-.106.615.615,0,0,1,.256.049.609.609,0,0,1,.187.131,1.342,1.342,0,0,1,.164.212Z" transform="translate(66.729 -42.015)"/>
      <path id="Path_165" data-name="Path 165" d="M-58.257,47V45.265l-1.338-2.073a4.138,4.138,0,0,1-.248-.437.663.663,0,0,1-.073-.273.437.437,0,0,1,.147-.329.514.514,0,0,1,.364-.138.441.441,0,0,1,.345.129,3.739,3.739,0,0,1,.353.514l1.024,1.662,1.035-1.662.157-.258a1.613,1.613,0,0,1,.14-.2.562.562,0,0,1,.17-.139.492.492,0,0,1,.228-.049.48.48,0,0,1,.349.136.429.429,0,0,1,.141.316.662.662,0,0,1-.072.291,3.745,3.745,0,0,1-.242.4l-1.371,2.1V47a.723.723,0,0,1-.157.508.522.522,0,0,1-.4.168.52.52,0,0,1-.4-.166A.73.73,0,0,1-58.257,47Z" transform="translate(65.277 -42.015)"/>
    </g>
    <path id="Path_166" data-name="Path 166" class="cls-2" d="M-230.044,71.435a8.671,8.671,0,0,1-1.423,5.009,8.707,8.707,0,0,1-4.209,3.159,18.883,18.883,0,0,1-6.769,1.075,16.5,16.5,0,0,1-6.524-1.166,9.486,9.486,0,0,1-4.013-2.913,5.877,5.877,0,0,1-1.3-3.509,2.717,2.717,0,0,1,.83-1.994,2.846,2.846,0,0,1,2.1-.828,2.441,2.441,0,0,1,1.708.545,5.969,5.969,0,0,1,1.14,1.526,7.718,7.718,0,0,0,2.6,2.824,7.846,7.846,0,0,0,4.129.932,5.964,5.964,0,0,0,3.483-.945,2.66,2.66,0,0,0,1.358-2.162,2.944,2.944,0,0,0-1.411-2.719,17.486,17.486,0,0,0-4.646-1.63,38.535,38.535,0,0,1-5.943-1.9,9.782,9.782,0,0,1-3.665-2.63,6.023,6.023,0,0,1-1.37-4.012,7.077,7.077,0,0,1,1.268-4.013,8.688,8.688,0,0,1,3.741-3.017,14.317,14.317,0,0,1,5.969-1.126,19.583,19.583,0,0,1,4.931.57,12.346,12.346,0,0,1,3.651,1.526,7.575,7.575,0,0,1,2.226,2.124,4.159,4.159,0,0,1,.764,2.279,2.631,2.631,0,0,1-.815,1.994,3.232,3.232,0,0,1-2.317.774,2.831,2.831,0,0,1-1.851-.621,12.144,12.144,0,0,1-1.749-1.863,6.327,6.327,0,0,0-1.889-1.657,5.938,5.938,0,0,0-2.95-.622,5.769,5.769,0,0,0-3.185.815,2.382,2.382,0,0,0-1.27,2.032,2.193,2.193,0,0,0,.934,1.826A7.712,7.712,0,0,0-244,62.3q1.579.466,4.349,1.139a23.346,23.346,0,0,1,5.373,1.917,8.947,8.947,0,0,1,3.159,2.627,5.834,5.834,0,0,1,1.074,3.458" transform="translate(-27.022 -3.788)"/>
    <path id="Path_167" data-name="Path 167" class="cls-2" d="M-194.653,66.825v9.4a4.836,4.836,0,0,1-1.01,3.339,3.429,3.429,0,0,1-2.667,1.113,3.33,3.33,0,0,1-2.6-1.113,4.879,4.879,0,0,1-1-3.339V64.961a35.66,35.66,0,0,0-.183-4.141,4.491,4.491,0,0,0-.983-2.421,3.152,3.152,0,0,0-2.537-.945q-3.47,0-4.57,2.383a16.817,16.817,0,0,0-1.1,6.835v9.554a4.879,4.879,0,0,1-1,3.326,3.335,3.335,0,0,1-2.627,1.126,3.384,3.384,0,0,1-2.627-1.126,4.8,4.8,0,0,1-1.024-3.326V56a4.437,4.437,0,0,1,.919-3.03,3.079,3.079,0,0,1,2.42-1.036,3.288,3.288,0,0,1,2.424.973,3.621,3.621,0,0,1,.969,2.679v.674a12.318,12.318,0,0,1,3.936-3.238,10.405,10.405,0,0,1,4.66-1.034,9.306,9.306,0,0,1,4.584,1.062,8.316,8.316,0,0,1,3.158,3.211,12.307,12.307,0,0,1,3.832-3.225,9.794,9.794,0,0,1,4.531-1.047,10.323,10.323,0,0,1,5,1.139,7.258,7.258,0,0,1,3.134,3.262,14.974,14.974,0,0,1,.9,6.032v13.8a4.836,4.836,0,0,1-1.009,3.339,3.431,3.431,0,0,1-2.667,1.113,3.384,3.384,0,0,1-2.627-1.126,4.788,4.788,0,0,1-1.024-3.326V64.342a27.217,27.217,0,0,0-.194-3.652,4.191,4.191,0,0,0-1.049-2.3,3.345,3.345,0,0,0-2.59-.932,4.732,4.732,0,0,0-2.652.828,5.646,5.646,0,0,0-1.957,2.228,17.709,17.709,0,0,0-.775,6.316" transform="translate(-34.631 -3.788)"/>
    <path id="Path_168" data-name="Path 168" class="cls-2" d="M-143.15,76.677a21.833,21.833,0,0,1-4.958,2.988,13.811,13.811,0,0,1-5.373,1,10.171,10.171,0,0,1-4.776-1.075,7.839,7.839,0,0,1-3.171-2.911,7.562,7.562,0,0,1-1.113-3.988,7.139,7.139,0,0,1,1.837-4.945A9.193,9.193,0,0,1-155.655,65q.674-.157,3.34-.7t4.569-1q1.905-.452,4.13-1.1a7.37,7.37,0,0,0-1.126-4.1q-1-1.307-4.13-1.308a8.627,8.627,0,0,0-4.052.751,6.568,6.568,0,0,0-2.33,2.251,23.717,23.717,0,0,1-1.372,1.981,2.255,2.255,0,0,1-1.722.478,3.015,3.015,0,0,1-2.06-.764,2.486,2.486,0,0,1-.866-1.953,5.98,5.98,0,0,1,1.321-3.626,9.446,9.446,0,0,1,4.115-2.9,18.588,18.588,0,0,1,6.965-1.138,19.711,19.711,0,0,1,7.326,1.1,6.819,6.819,0,0,1,3.768,3.483,15.238,15.238,0,0,1,1.1,6.316q0,2.488-.013,4.221t-.039,3.858a14.194,14.194,0,0,0,.66,4.156,13.122,13.122,0,0,1,.659,2.783,2.592,2.592,0,0,1-1.024,1.979,3.418,3.418,0,0,1-2.315.894,3.124,3.124,0,0,1-2.149-1.021,15.108,15.108,0,0,1-2.254-2.964m-.466-10.229a35.536,35.536,0,0,1-4.518,1.2q-2.966.636-4.1.932a5.574,5.574,0,0,0-2.175,1.166,2.981,2.981,0,0,0-1.036,2.421,3.591,3.591,0,0,0,1.217,2.731,4.5,4.5,0,0,0,3.185,1.125,8.293,8.293,0,0,0,3.871-.919,6.139,6.139,0,0,0,2.6-2.369,10.823,10.823,0,0,0,.958-5.281Z" transform="translate(-46.573 -3.774)"/>
    <path id="Path_169" data-name="Path 169" class="cls-2" d="M-115.725,70.476v5.9a4.542,4.542,0,0,1-1.01,3.224,3.361,3.361,0,0,1-2.562,1.075,3.227,3.227,0,0,1-2.511-1.089,4.634,4.634,0,0,1-.985-3.21V56.7q0-4.761,3.445-4.765a2.873,2.873,0,0,1,2.536,1.115,6.156,6.156,0,0,1,.855,3.288,12.352,12.352,0,0,1,2.6-3.288,5.378,5.378,0,0,1,3.561-1.115,9.117,9.117,0,0,1,4.322,1.115,3.326,3.326,0,0,1,2.1,2.952,2.8,2.8,0,0,1-.894,2.134,2.763,2.763,0,0,1-1.929.843,8.752,8.752,0,0,1-1.875-.481,8.777,8.777,0,0,0-2.628-.477,3.843,3.843,0,0,0-2.539.815,5.249,5.249,0,0,0-1.527,2.42,16.9,16.9,0,0,0-.751,3.82q-.205,2.214-.206,5.4" transform="translate(-55.043 -3.788)"/>
    <path id="Path_170" data-name="Path 170" class="cls-2" d="M-94.137,49.959h.777V45.714q0-1.711.091-2.681a3.953,3.953,0,0,1,.5-1.669,3.174,3.174,0,0,1,1.191-1.179,3.364,3.364,0,0,1,1.734-.453A3.49,3.49,0,0,1-87.4,40.743a2.992,2.992,0,0,1,.919,1.642,15.13,15.13,0,0,1,.194,2.758v4.816H-83.7a3.314,3.314,0,0,1,2.291.712,2.346,2.346,0,0,1,.792,1.826,2.044,2.044,0,0,1-1.128,1.992,7.276,7.276,0,0,1-3.224.57h-1.32v13a21.452,21.452,0,0,0,.115,2.551,2.6,2.6,0,0,0,.623,1.449,2.123,2.123,0,0,0,1.643.556,8.808,8.808,0,0,0,1.683-.219,8.8,8.8,0,0,1,1.658-.221,2.135,2.135,0,0,1,1.54.685,2.312,2.312,0,0,1,.688,1.7,2.84,2.84,0,0,1-1.867,2.616,12.592,12.592,0,0,1-5.36.906,9.24,9.24,0,0,1-5.022-1.114,5.157,5.157,0,0,1-2.239-3.08,20.846,20.846,0,0,1-.532-5.256V55.059h-.932a3.372,3.372,0,0,1-2.33-.723,2.372,2.372,0,0,1-.8-1.839,2.276,2.276,0,0,1,.842-1.826,3.691,3.691,0,0,1,2.446-.712" transform="translate(-60.449 -1.186)"/>
  </g>
</svg>
